<?xml version="1.0" encoding="iso-8859-1"?>
<!-- Generator: Adobe Illustrator 19.0.0, SVG Export Plug-In . SVG Version: 6.00 Build 0)  -->
<svg version="1.1" id="Capa_1" xmlns="http://www.w3.org/2000/svg" xmlns:xlink="http://www.w3.org/1999/xlink" x="0px" y="0px"
	 viewBox="0 0 490.1 490.1" style="enable-background:new 0 0 490.1 490.1;" xml:space="preserve">
<g>
	<g>
		<path d="M414.15,81.3h-61.1l-3.6-30.2c-1-10.4-9.4-17.7-19.8-17.7h-63.6V20.9c0-11.5-9.4-20.9-20.9-20.9
			c-11.5,0-20.9,9.4-20.9,20.9v12.5h-66.7c-9.4,0-18.8,7.3-19.8,17.7l-3.6,31.3h-58c-11.5,0-20.9,9.4-20.9,20.9v365.9
			c0,11.5,9.4,20.9,20.9,20.9h337.8c10.4,0,19.8-9.4,20.9-20.9v-367C434.95,90.7,425.65,81.3,414.15,81.3z M176.45,74h135.5
			l6.3,51.1h-147L176.45,74z M393.25,450.4h-296V124.1h32.4l-2.1,18.8c0,17,13.1,23.7,20.9,22.9h193.8c11.5,0,19.8-9.4,18.8-20.9
			c0-2.1-3-21.9-3-21.9h35.2V450.4z"/>
		<path d="M285.95,247.1l-53.2,52.1l-28.1-28.1c-8.3-8.3-20.9-8.3-29.2,0s-8.3,20.9,0,29.2l42.7,42.7c4.2,4.2,15.9,11.6,30.2,0
			l66.7-66.7c8.3-8.3,8.3-20.9,0-29.2C306.75,238.7,294.25,238.7,285.95,247.1z"/>
	</g>
</g>
<g>
</g>
<g>
</g>
<g>
</g>
<g>
</g>
<g>
</g>
<g>
</g>
<g>
</g>
<g>
</g>
<g>
</g>
<g>
</g>
<g>
</g>
<g>
</g>
<g>
</g>
<g>
</g>
<g>
</g>
</svg>
